<svg width="48.000000pt" height="48.000000pt" viewBox="0 0 48.000000 48.000000" xmlns="http://www.w3.org/2000/svg">
  <g transform="translate(0.000000,48.000000) scale(0.100000,-0.100000)" fill="#fefefe" stroke="none">
    <path d="M0 240 l0 -240 240 0 240 0 0 240 0 240 -240 0 -240 0 0 -240z m219
189 l3 -24 -21 19 c-11 10 -18 23 -15 28 10 16 29 2 33 -23z m-60 -35 c17 -4
45 -19 61 -34 l30 -28 0 -26 c0 -14 4 -26 8 -26 5 0 15 -11 22 -25 l13 -25 26
0 26 0 20 30 20 30 22 0 c12 0 25 -5 29 -12 l7 -11 -21 -18 c-23 -18 -29 -39
-13 -39 14 0 41 -30 41 -45 l0 -15 -24 12 -25 11 -51 -33 -51 -33 -73 6 -74 5
-38 25 c-22 13 -45 31 -52 40 -8 9 -20 40 -28 69 l-14 53 6 28 6 28 31 20 c35
21 48 22 96 13z m205 -2 c2 -4 1 -14 -3 -21 l-8 -12 -34 3 -34 3 30 17 c34 20
42 21 49 10z" />
  </g>
  <g transform="translate(0.000000,48.000000) scale(0.100000,-0.100000)" fill="#83b1fe" stroke="none">
    <path d="M53 379 l-23 -12 -6 -34 c-4 -19 -4 -37 -1 -40 4 -3 20 0 37 7 l30
12 25 -16 c14 -9 36 -38 50 -65 24 -49 57 -81 82 -81 7 0 13 6 13 14 l0 13 54
6 54 5 36 39 c19 21 36 44 36 51 l0 12 -29 0 -30 0 -18 -30 c-9 -17 -26 -33
-36 -36 l-18 -6 -15 19 c-7 10 -25 41 -38 69 -14 28 -32 57 -40 64 -9 7 -44
14 -78 16 l-63 4 -22 -11z m97 -39 c0 -5 -4 -10 -10 -10 -5 0 -10 5 -10 10 0
6 5 10 10 10 6 0 10 -4 10 -10z" />
  </g>
  <g transform="translate(0.000000,48.000000) scale(0.100000,-0.100000)" fill="#b9ddfa" stroke="none">
    <path d="M180 450 l0 -20 14 0 c8 0 17 7 20 16 9 23 8 24 -14 24 l-20 0 0 -20z" />
    <path d="M63 397 c-25 -11 -31 -27 -10 -27 19 0 40 16 36 28 l-4 9 -22 -10z" />
    <path d="M203 396 l0 -14 14 5 c7 3 13 9 13 14 0 5 -6 9 -13 9 -8 0 -14 -6
-14 -14z" />
    <path d="M323 403 c-7 -2 -13 -13 -13 -24 l0 -19 15 0 15 0 0 25 c0 14 -1 25
-2 24 -2 0 -9 -3 -15 -6z" />
    <path d="M6 315 l-5 -15 14 0 c8 0 15 7 15 15 0 8 -4 15 -9 15 -5 0 -11 -7
-15 -15z" />
    <path d="M68 303 l-18 -4 0 -24 c0 -13 -4 -35 -10 -49 l-9 -26 26 -25 c15 -13
39 -27 54 -30 15 -4 38 -15 50 -26 13 -11 29 -17 37 -14 7 3 20 5 28 5 25 0
15 22 -31 71 l-45 48 0 24 0 25 -25 16 c-25 16 -28 17 -57 9z" />
    <path d="M280 245 c0 -8 7 -15 15 -15 l14 0 -5 15 c-4 8 -10 15 -15 15 -5 0
-9 -7 -9 -15z" />
    <path d="M390 211 l0 -21 -15 0 c-8 0 -15 -4 -15 -9 0 -4 -22 -6 -50 -3 l-50
5 0 -32 0 -31 25 0 c14 0 25 -4 25 -10 0 -16 27 0 40 25 l13 24 29 6 29 7 -3
26 c-2 14 -9 27 -15 30 l-13 4 0 -21z" />
  </g>
  <g transform="translate(0.000000,48.000000) scale(0.100000,-0.100000)" fill="#c2e1fa" stroke="none">
    <path d="M170 445 c0 -8 5 -15 10 -15 6 0 10 7 10 15 0 8 -4 15 -10 15 -5 0
-10 -7 -10 -15z" />
    <path d="M190 385 c0 -8 7 -15 16 -15 l16 0 -12 15 c-7 8 -14 15 -16 15 -2 0
-4 -7 -4 -15z" />
    <path d="M303 393 c-18 -7 -16 -23 2 -23 8 0 15 7 15 15 0 8 -1 15 -2 14 -2 0
-9 -3 -15 -6z" />
    <path d="M360 374 l0 -15 10 6 c6 3 10 10 10 16 0 5 -4 9 -10 9 -5 0 -10 -7
-10 -16z" />
    <path d="M230 345 c0 -8 7 -15 15 -15 l14 0 -5 15 c-4 8 -10 15 -15 15 -5 0
-9 -7 -9 -15z" />
    <path d="M280 350 c0 -5 4 -10 9 -10 6 0 13 5 16 10 l6 10 -15 0 c-9 0 -16 -4
-16 -10z" />
    <path d="M16 341 c-4 -7 -5 -15 -2 -18 9 -9 19 4 14 18 l-4 13 -8 -13z" />
    <path d="M44 296 c-3 -7 -3 -37 -1 -66 l4 -52 19 -18 19 -18 18 7 18 7 -28 24
-28 25 20 -25 20 -25 -22 18 -22 19 6 14 c3 8 1 14 -4 14 -5 0 -7 16 -5 35 l4
36 22 -3 c22 -3 56 -38 56 -58 0 -6 20 -32 45 -59 25 -26 42 -51 38 -55 -4 -4
14 -6 41 -4 l49 3 5 13 4 13 -26 -7 -26 -6 0 11 c0 6 12 11 26 11 l26 0 5 -20
5 -20 14 11 14 12 -23 12 c-32 16 -77 24 -77 14 0 -5 -6 -9 -13 -9 -19 0 -87
73 -87 92 0 22 -61 68 -89 68 -12 0 -24 -6 -27 -14z m91 -26 c3 -5 4 -10 1
-10 -3 0 -8 5 -11 10 -3 6 -4 10 -1 10 3 0 8 -4 11 -10z" />
    <path d="M0 296 c0 -2 7 -9 15 -16 l15 -12 0 16 c0 9 -7 16 -15 16 -8 0 -15
-2 -15 -4z" />
    <path d="M420 290 c0 -5 7 -10 16 -10 l15 0 -6 10 c-3 6 -10 10 -16 10 -5 0
-9 -4 -9 -10z" />
    <path d="M400 235 l0 -14 15 5 c8 4 15 10 15 15 0 5 -7 9 -15 9 -8 0 -15 -7
-15 -15z" />
    <path d="M380 185 l0 -15 25 0 25 0 0 15 0 15 -25 0 -25 0 0 -15z" />
    <path d="M320 175 c0 -2 9 -9 20 -15 l20 -11 0 16 0 15 -20 0 c-11 0 -20 -2
-20 -5z" />
    <path d="M440 150 c0 -5 5 -10 10 -10 6 0 10 5 10 10 0 6 -4 10 -10 10 -5 0
-10 -4 -10 -10z" />
    <path d="M130 141 c0 -12 7 -16 45 -25 l30 -7 -15 14 c-8 8 -25 18 -37 22
l-23 6 0 -10z" />
  </g>
  <g transform="translate(0.000000,48.000000) scale(0.100000,-0.100000)" fill="#70aefd" stroke="none">
    <path d="M63 388 c-13 -6 -23 -15 -23 -21 l0 -9 18 8 c9 5 44 9 76 8 l59 0 29
-34 28 -34 0 15 c0 27 -30 58 -68 69 -46 12 -90 12 -119 -2z" />
    <path d="M150 349 c0 -5 5 -7 10 -4 6 3 10 8 10 11 0 2 -4 4 -10 4 -5 0 -10
-5 -10 -11z" />
    <path d="M20 334 l0 -15 10 6 c6 3 10 10 10 16 0 5 -4 9 -10 9 -5 0 -10 -7
-10 -16z" />
    <path d="M120 333 c0 -3 7 -14 16 -24 l16 -18 -37 19 c-21 11 -42 17 -48 13
-5 -3 3 -11 19 -18 16 -6 35 -19 43 -28 18 -22 32 -22 27 1 -9 39 -19 62 -27
62 -5 0 -9 -3 -9 -7z" />
    <path d="M372 278 c-9 -11 -25 -30 -35 -40 -10 -11 -17 -22 -14 -24 9 -10 34
8 51 36 l17 30 21 0 20 0 -33 -39 -34 -38 -29 -7 c-16 -3 -39 -6 -52 -6 l-24
0 -6 25 c-3 14 -10 25 -15 25 -11 0 -11 -7 0 -48 l10 -32 -21 11 c-11 6 -29
26 -40 45 -11 19 -23 33 -25 30 -8 -7 7 -46 18 -46 5 0 9 -7 9 -15 0 -8 6 -15
14 -15 8 0 16 -6 19 -12 l4 -13 24 12 c13 7 48 15 77 18 28 4 52 10 52 14 0 4
14 21 31 39 l31 31 -7 21 -6 20 -20 0 c-10 0 -27 -10 -37 -22z" />
    <path d="M247 283 c-3 -2 3 -13 13 -23 10 -10 22 -26 28 -36 6 -10 14 -15 18
-11 5 5 4 11 -2 15 -6 4 -14 17 -18 29 -7 21 -29 36 -39 26z" />
  </g>
  <g transform="translate(0.000000,48.000000) scale(0.100000,-0.100000)" fill="#51a8f8" stroke="none">
    <path d="M43 380 c-13 -5 -23 -14 -23 -20 0 -15 12 -12 40 10 27 21 20 25 -17
10z" />
    <path d="M190 386 c0 -2 7 -9 15 -16 l15 -12 0 10 c0 5 -7 12 -15 16 -8 3 -15
4 -15 2z" />
    <path d="M233 337 c4 -10 7 -24 7 -31 0 -6 7 -21 15 -31 8 -11 23 -31 34 -45
l19 -25 9 8 8 9 -18 12 c-9 7 -17 16 -17 20 0 4 -7 14 -15 22 -8 9 -15 24 -15
33 0 10 -8 25 -17 32 l-17 14 7 -18z" />
    <path d="M19 335 c-3 -5 -5 -17 -4 -25 1 -8 3 -25 3 -37 l2 -23 15 0 15 0 0
19 c0 11 4 23 10 26 5 3 10 11 10 16 l0 10 -19 -11 -20 -10 -3 23 c-2 12 -6
18 -9 12z" />
    <path d="M80 310 c0 -5 7 -10 16 -10 l15 0 -6 10 c-3 6 -10 10 -16 10 -5 0 -9
-4 -9 -10z" />
    <path d="M423 283 c9 -9 20 -13 24 -9 4 4 1 11 -7 16 -25 16 -35 11 -17 -7z" />
    <path d="M353 265 c-14 -15 -17 -35 -7 -35 8 0 33 32 34 43 0 11 -14 8 -27 -8z" />
    <path d="M150 258 c0 -24 11 -48 22 -48 l9 0 -6 23 c-4 12 -11 26 -16 32 l-9
9 0 -16z" />
    <path d="M230 223 c0 -12 5 -25 10 -28 13 -8 13 15 0 35 l-10 15 0 -22z" />
    <path d="M374 205 l-6 -14 -56 -7 c-50 -6 -82 -21 -82 -38 0 -13 31 -5 36 9
l6 15 39 0 c40 0 48 -7 27 -28 -21 -21 -3 -22 33 -3 l36 19 14 -9 c21 -13 26
-11 32 13 l6 22 -17 16 c-9 9 -27 16 -40 17 l-23 2 -5 -14z m56 -19 c0 -2 -13
-6 -29 -8 -17 -2 -28 -1 -25 4 5 8 54 12 54 4z" />
    <path d="M48 194 c-3 -3 5 -16 19 -30 14 -14 28 -23 31 -20 3 3 -6 17 -20 31
-14 13 -27 22 -30 19z" />
    <path d="M192 178 c5 -15 28 -23 28 -10 0 5 -7 13 -16 16 l-16 6 4 -12z" />
    <path d="M122 128 c6 -18 28 -21 28 -4 0 9 -7 16 -16 16 -9 0 -14 -5 -12 -12z" />
  </g>
  <g transform="translate(0.000000,48.000000) scale(0.100000,-0.100000)" fill="#a3d7fb" stroke="none">
    <path d="M210 431 c0 -17 5 -33 10 -36 l10 -6 0 35 c0 20 -4 36 -10 36 -5 0
-10 -13 -10 -29z" />
    <path d="M150 395 c0 -8 7 -15 15 -15 8 0 15 4 15 9 0 5 -7 11 -15 15 l-15 5
0 -14z" />
    <path d="M360 385 l0 -15 -35 0 c-19 0 -35 -4 -35 -10 l0 -10 40 0 c22 0 40 4
40 9 0 5 3 16 6 25 l6 16 -11 0 c-6 0 -11 -7 -11 -15z" />
    <path d="M14 328 l-7 -11 11 7 c12 7 16 16 8 16 -3 0 -8 -5 -12 -12z" />
    <path d="M105 290 c3 -5 10 -10 16 -10 5 0 9 5 9 10 0 6 -7 10 -16 10 l-15 0
6 -10z" />
    <path d="M366 284 l-6 -16 12 4 c15 5 23 28 10 28 -5 0 -13 -7 -16 -16z" />
    <path d="M262 278 c2 -6 10 -14 16 -16 l12 -4 -6 16 c-7 18 -28 22 -22 4z" />
    <path d="M33 274 c3 -3 2 -17 -3 -30 l-9 -23 16 -16 c8 -9 17 -15 19 -13 1 2
0 22 -3 46 -3 23 -10 42 -16 42 -6 0 -8 -3 -4 -6z" />
    <path d="M145 243 c5 -29 80 -111 91 -100 4 3 1 13 -6 22 -7 9 -15 13 -18 10
-6 -5 -24 23 -44 68 -16 35 -30 35 -23 0z" />
    <path d="M403 210 c-1 -11 3 -20 8 -20 6 0 7 -5 4 -10 -3 -6 1 -13 9 -16 9 -3
13 -11 10 -16 l-7 -11 14 5 c8 3 16 13 17 23 l4 18 -28 23 c-15 13 -28 24 -28
24 -1 0 -2 -9 -3 -20z" />
    <path d="M330 178 c0 -5 5 -8 11 -8 l11 0 -5 -15 c-4 -8 -2 -17 3 -20 14 -9
51 18 48 35 l-3 15 -33 0 c-17 0 -32 -3 -32 -7z m55 -7 c3 -6 -5 -15 -17 -21
l-23 -11 17 14 c10 8 15 17 11 20 -3 4 -4 7 0 7 3 0 8 -4 12 -9z" />
    <path d="M100 147 c0 -7 9 -18 21 -25 l21 -13 -7 10 -6 11 13 0 13 1 -19 14
c-24 18 -36 19 -36 2z" />
    <path d="M160 127 c0 -8 7 -14 15 -14 l15 0 -11 14 c-6 7 -13 13 -15 13 -2 0
-4 -6 -4 -13z" />
    <path d="M290 110 c0 -5 7 -10 15 -10 8 0 15 5 15 10 0 6 -7 10 -15 10 -8 0
-15 -4 -15 -10z" />
  </g>
  <g transform="translate(0.000000,48.000000) scale(0.100000,-0.100000)" fill="#41a2f7" stroke="none">
    <path d="M60 387 c0 -6 -3 -7 -7 -4 -10 11 -33 -13 -33 -35 l0 -19 11 6 c6 4
8 13 5 21 -3 8 -2 13 2 13 13 -2 52 13 52 20 0 4 -7 8 -15 8 -8 0 -15 -5 -15
-10z" />
    <path d="M150 388 c0 -4 7 -8 15 -8 8 0 15 4 15 8 0 5 -7 9 -15 9 -8 0 -15 -4
-15 -9z" />
    <path d="M210 371 c0 -6 5 -13 10 -16 l10 -6 0 15 c0 9 -4 16 -10 16 -5 0 -10
-4 -10 -9z" />
    <path d="M240 331 c0 -6 5 -13 10 -16 l10 -6 0 15 c0 9 -4 16 -10 16 -5 0 -10
-4 -10 -9z" />
    <path d="M60 311 c0 -6 6 -11 13 -11 6 0 23 -3 37 -6 l25 -7 -10 11 c-5 6 -22
14 -37 17 l-28 7 0 -11z" />
    <path d="M257 283 c-6 -11 31 -44 38 -34 2 5 -2 12 -11 15 -8 3 -12 10 -9 16
3 5 2 10 -4 10 -5 0 -12 -3 -14 -7z" />
    <path d="M430 270 l-11 -20 16 0 15 0 0 20 c0 11 -2 20 -5 20 -2 0 -9 -9 -15
-20z" />
    <path d="M150 245 c5 -14 7 -25 4 -25 -4 0 4 -9 17 -19 13 -11 26 -18 28 -16
2 2 -6 16 -18 31 -11 15 -21 33 -21 40 0 8 -4 14 -10 14 l-10 0 10 -25z" />
    <path d="M330 241 c-8 -6 -17 -8 -21 -5 -4 2 -10 0 -13 -5 -3 -5 1 -12 10 -15
19 -7 57 11 49 25 -7 11 -6 11 -25 0z" />
    <path d="M33 215 c0 -8 4 -15 9 -15 4 0 8 7 8 15 0 8 -4 15 -8 15 -5 0 -9 -7
-9 -15z" />
    <path d="M231 228 c-2 -18 20 -58 31 -58 l13 0 -10 8 c-6 4 -16 18 -22 32 -6
14 -12 22 -12 18z" />
    <path d="M389 224 c-1 -5 -1 -12 0 -16 0 -5 -3 -8 -9 -8 -5 0 -10 -4 -10 -10
0 -5 4 -10 9 -10 12 0 25 39 17 47 -3 4 -7 2 -7 -3z" />
    <path d="M420 195 l0 -14 15 5 c8 4 15 10 15 15 0 5 -7 9 -15 9 -8 0 -15 -7
-15 -15z" />
    <path d="M60 175 c0 -8 7 -15 16 -15 l16 0 -12 15 c-7 8 -14 15 -16 15 -2 0
-4 -7 -4 -15z" />
    <path d="M330 180 c0 -7 3 -10 7 -7 3 4 3 10 0 14 -4 3 -7 0 -7 -7z" />
    <path d="M210 174 c0 -16 23 -34 42 -34 10 0 18 5 18 11 0 6 -6 9 -12 6 -7 -2
-21 2 -30 11 -10 8 -18 11 -18 6z" />
    <path d="M122 136 c10 -7 15 -16 11 -19 -3 -4 1 -7 10 -7 23 0 21 17 -2 30
-28 14 -39 12 -19 -4z" />
    <path d="M297 123 c-11 -11 -8 -20 8 -20 8 0 15 6 15 14 0 14 -12 17 -23 6z" />
  </g>
  <g transform="translate(0.000000,48.000000) scale(0.100000,-0.100000)" fill="#70bcf8" stroke="none">
    <path d="M173 445 c0 -8 6 -15 12 -15 6 0 12 7 12 15 0 8 -6 15 -12 15 -6 0
-12 -7 -12 -15z" />
    <path d="M80 394 l0 -15 10 6 c6 3 10 10 10 16 0 5 -4 9 -10 9 -5 0 -10 -7
-10 -16z" />
    <path d="M140 401 c0 -6 5 -13 10 -16 l10 -6 0 15 c0 9 -4 16 -10 16 -5 0 -10
-4 -10 -9z" />
    <path d="M172 389 c2 -6 8 -10 13 -10 5 0 11 4 13 10 2 6 -4 11 -13 11 -9 0
-15 -5 -13 -11z" />
    <path d="M222 361 c4 -13 18 -16 19 -4 0 4 -5 9 -11 12 -7 2 -11 -2 -8 -8z" />
    <path d="M142 328 c3 -7 13 -15 24 -17 l18 -3 -13 16 c-16 19 -34 21 -29 4z" />
    <path d="M61 306 l-9 -11 33 -1 c36 0 39 10 6 19 -11 3 -25 0 -30 -7z" />
    <path d="M0 301 c0 -5 7 -11 14 -14 l15 -6 -6 15 c-6 15 -23 19 -23 5z" />
    <path d="M365 276 c-16 -13 -27 -27 -24 -31 4 -3 15 3 26 14 10 11 30 24 43
30 l25 10 -20 0 c-11 1 -33 -10 -50 -23z" />
    <path d="M135 270 c3 -5 11 -10 16 -10 6 0 7 5 4 10 -3 6 -11 10 -16 10 -6 0
-7 -4 -4 -10z" />
    <path d="M275 260 c3 -5 8 -10 11 -10 2 0 4 5 4 10 0 6 -5 10 -11 10 -5 0 -7
-4 -4 -10z" />
    <path d="M425 256 l-18 -13 10 -6 c6 -4 16 0 23 8 17 21 8 28 -15 11z" />
    <path d="M145 240 c-3 -5 -1 -10 4 -10 6 0 11 5 11 10 0 6 -2 10 -4 10 -3 0
-8 -4 -11 -10z" />
    <path d="M25 230 l-6 -10 16 0 16 0 -6 10 c-3 6 -8 10 -10 10 -2 0 -7 -4 -10
-10z" />
    <path d="M153 213 c4 -3 10 -3 14 0 3 4 0 7 -7 7 -7 0 -10 -3 -7 -7z" />
    <path d="M386 205 l-5 -15 14 0 c16 0 20 16 6 24 -5 3 -11 -1 -15 -9z" />
    <path d="M38 203 c6 -2 10 -8 8 -12 -3 -4 1 -8 9 -8 l15 0 -11 14 c-6 7 -17
13 -23 12 l-11 -1 13 -5z" />
    <path d="M430 206 c0 -2 7 -9 15 -16 l15 -13 -6 17 c-3 9 -10 16 -15 16 -5 0
-9 -2 -9 -4z" />
    <path d="M445 160 c-3 -5 -2 -10 4 -10 5 0 13 5 16 10 3 6 2 10 -4 10 -5 0
-13 -4 -16 -10z" />
    <path d="M100 148 l0 -13 26 -1 c28 -2 28 -1 -3 15 l-23 12 0 -13z" />
    <path d="M335 140 c-4 -6 -9 -8 -13 -6 -11 6 -47 -23 -38 -31 4 -4 10 -3 14 3
4 6 14 10 24 9 l16 -3 5 19 c6 21 2 25 -8 9z" />
    <path d="M185 110 c3 -5 17 -10 31 -10 13 0 24 5 24 10 0 6 -14 10 -31 10
l-30 0 6 -10z" />
  </g>
  <g transform="translate(0.000000,48.000000) scale(0.100000,-0.100000)" fill="#f0f7fd" stroke="none">
    <path d="M175 460 c-3 -5 -1 -10 4 -10 6 0 11 5 11 10 0 6 -2 10 -4 10 -3 0
-8 -4 -11 -10z" />
    <path d="M185 420 l18 -20 -13 0 c-7 0 -11 -3 -7 -6 3 -3 10 -3 15 0 15 9 2
46 -16 46 l-15 0 18 -20z" />
    <path d="M85 400 c3 -5 19 -10 35 -10 16 0 32 5 35 10 l6 10 -41 0 -41 0 6
-10z" />
    <path d="M330 400 c0 -5 12 -10 26 -10 l25 0 -6 10 c-3 6 -15 10 -26 10 -10 0
-19 -4 -19 -10z" />
    <path d="M280 371 l-10 -20 10 -6 c5 -3 10 0 10 9 0 8 5 16 12 18 l12 4 -11 7
-12 8 -11 -20z" />
    <path d="M220 367 c0 -8 7 -20 15 -27 9 -7 14 -19 11 -27 -3 -7 -1 -13 4 -13
6 0 10 9 10 20 0 11 -5 20 -11 20 -5 0 -8 4 -5 9 3 5 -1 14 -9 21 l-15 12 0
-15z" />
    <path d="M0 299 c0 -5 5 -7 10 -4 5 3 10 8 10 11 0 2 -4 4 -10 4 -5 0 -10 -5
-10 -11z" />
    <path d="M375 290 c3 -5 8 -10 11 -10 2 0 4 5 4 10 0 6 -5 10 -11 10 -5 0 -7
-4 -4 -10z" />
    <path d="M263 283 c4 -3 10 -3 14 0 3 4 0 7 -7 7 -7 0 -10 -3 -7 -7z" />
    <path d="M350 265 c-7 -9 -10 -18 -6 -22 3 -3 6 -1 6 6 0 7 4 10 8 7 5 -3 9 1
9 9 0 8 -1 15 -2 15 -2 0 -8 -7 -15 -15z" />
    <path d="M280 260 c0 -5 5 -10 11 -10 5 0 7 5 4 10 -3 6 -8 10 -11 10 -2 0 -4
-4 -4 -10z" />
    <path d="M440 261 c0 -7 -4 -10 -9 -7 -10 7 -47 -32 -38 -40 4 -4 9 1 13 10 3
9 10 14 14 11 10 -6 35 23 26 32 -3 3 -6 1 -6 -6z" />
    <path d="M24 228 l-7 -11 11 7 c12 7 16 16 8 16 -3 0 -8 -5 -12 -12z" />
    <path d="M450 170 c0 -5 5 -10 11 -10 5 0 7 5 4 10 -3 6 -8 10 -11 10 -2 0 -4
-4 -4 -10z" />
    <path d="M360 139 c0 -5 5 -7 10 -4 6 3 10 8 10 11 0 2 -4 4 -10 4 -5 0 -10
-5 -10 -11z" />
    <path d="M310 110 c0 -7 3 -10 7 -7 3 4 3 10 0 14 -4 3 -7 0 -7 -7z" />
  </g>
  <g transform="translate(0.000000,48.000000) scale(0.100000,-0.100000)" fill="#60b5f9" stroke="none">
    <path d="M60 390 c0 -7 3 -10 7 -7 3 4 3 10 0 14 -4 3 -7 0 -7 -7z" />
    <path d="M84 388 l-7 -11 11 7 c7 4 12 9 12 12 0 8 -9 4 -16 -8z" />
    <path d="M145 390 c3 -5 8 -10 11 -10 3 0 2 5 -1 10 -3 6 -8 10 -11 10 -3 0
-2 -4 1 -10z" />
    <path d="M35 380 c-3 -5 -1 -10 4 -10 6 0 11 5 11 10 0 6 -2 10 -4 10 -3 0 -8
-4 -11 -10z" />
    <path d="M219 362 c5 -10 18 -25 28 -33 l18 -14 -17 21 c-10 11 -18 26 -18 32
0 7 -5 12 -10 12 l-11 0 10 -18z" />
    <path d="M20 350 c0 -5 5 -10 11 -10 5 0 7 5 4 10 -3 6 -8 10 -11 10 -2 0 -4
-4 -4 -10z" />
    <path d="M3 303 c4 -3 10 -3 14 0 3 4 0 7 -7 7 -7 0 -10 -3 -7 -7z" />
    <path d="M120 285 c19 -14 36 -25 39 -25 11 1 -50 50 -62 50 -6 0 4 -11 23
-25z" />
    <path d="M240 301 c0 -5 7 -11 14 -14 l15 -6 -6 15 c-6 15 -23 19 -23 5z" />
    <path d="M380 290 c0 -5 5 -10 10 -10 6 0 10 5 10 10 0 6 -4 10 -10 10 -5 0
-10 -4 -10 -10z" />
    <path d="M20 257 c0 -19 16 -31 24 -18 3 5 -1 14 -9 21 l-15 12 0 -15z" />
    <path d="M335 240 c-3 -5 -1 -10 4 -10 6 0 11 5 11 10 0 6 -2 10 -4 10 -3 0
-8 -4 -11 -10z" />
    <path d="M420 204 l0 -15 10 6 c6 4 8 11 5 16 -9 14 -15 11 -15 -7z" />
    <path d="M190 190 c0 -7 3 -10 7 -7 3 4 3 10 0 14 -4 3 -7 0 -7 -7z" />
    <path d="M63 175 c0 -8 5 -13 11 -12 6 1 10 -3 9 -10 -1 -6 4 -14 12 -17 l15
-5 0 12 c0 7 -11 20 -24 29 l-23 16 0 -13z" />
    <path d="M390 164 l0 -16 17 13 17 14 -7 -11 -7 -12 14 -5 c15 -6 36 11 36 28
0 5 -5 3 -10 -5 -5 -8 -10 -10 -10 -5 0 6 -11 12 -25 13 l-25 2 0 -16z" />
    <path d="M255 150 c-3 -5 -1 -10 4 -10 6 0 11 5 11 10 0 6 -2 10 -4 10 -3 0
-8 -4 -11 -10z" />
    <path d="M363 143 c4 -3 10 -3 14 0 3 4 0 7 -7 7 -7 0 -10 -3 -7 -7z" />
    <path d="M195 110 l-6 -10 21 0 21 0 -6 10 c-3 6 -10 10 -15 10 -5 0 -12 -4
-15 -10z" />
  </g>
  <g transform="translate(0.000000,48.000000) scale(0.100000,-0.100000)" fill="#92cdfa" stroke="none">
    <path d="M195 410 c3 -5 10 -10 16 -10 5 0 9 5 9 10 0 6 -7 10 -16 10 l-15 0
6 -10z" />
    <path d="M330 390 c0 -5 7 -10 15 -10 8 0 15 5 15 10 0 6 -7 10 -15 10 -8 0
-15 -4 -15 -10z" />
    <path d="M21 354 l1 -19 5 13 c3 7 2 16 -1 19 -3 4 -6 -2 -5 -13z" />
    <path d="M140 350 c0 -5 5 -10 10 -10 6 0 10 5 10 10 0 6 -4 10 -10 10 -5 0
-10 -4 -10 -10z" />
    <path d="M243 303 c4 -3 10 -3 14 0 3 4 0 7 -7 7 -7 0 -10 -3 -7 -7z" />
    <path d="M380 290 c0 -7 3 -10 7 -7 3 4 3 10 0 14 -4 3 -7 0 -7 -7z" />
    <path d="M27 283 c-10 -10 -8 -41 2 -48 5 -3 13 0 17 6 l7 12 -11 -7 -12 -7 0
15 c0 9 5 16 10 16 6 0 10 5 10 10 0 11 -13 13 -23 3z" />
    <path d="M143 233 c4 -3 10 -3 14 0 3 4 0 7 -7 7 -7 0 -10 -3 -7 -7z" />
    <path d="M421 212 c3 -21 -3 -32 -17 -32 l-15 0 6 10 c3 6 1 10 -4 10 -24 0
-2 -32 36 -54 l11 -6 -3 27 c-1 16 2 31 7 34 l10 6 -16 6 c-9 4 -15 3 -15 -1z
m9 -42 c0 -5 -5 -10 -11 -10 -5 0 -7 5 -4 10 3 6 8 10 11 10 2 0 4 -4 4 -10z" />
    <path d="M253 143 c4 -3 10 -3 14 0 3 4 0 7 -7 7 -7 0 -10 -3 -7 -7z" />
    <path d="M146 129 c2 -4 -2 -10 -8 -12 -7 -3 -3 -6 10 -6 l22 -1 0 13 c0 8 -7
14 -15 14 -8 0 -12 -4 -9 -8z" />
    <path d="M305 131 c-3 -5 -1 -12 5 -16 l10 -6 0 15 c0 18 -6 21 -15 7z" />
    <path d="M187 108 c2 -5 29 -8 59 -8 l55 0 -6 10 -6 10 -54 -2 c-29 -2 -51 -6
-48 -10z" />
  </g>
  <g transform="translate(0.000000,48.000000) scale(0.100000,-0.100000)" fill="#7ec2f9" stroke="none">
    <path d="M103 393 c9 -2 25 -2 35 0 9 3 1 5 -18 5 -19 0 -27 -2 -17 -5z" />
    <path d="M130 321 c0 -6 4 -12 8 -15 5 -3 9 1 9 9 0 8 -4 15 -9 15 -4 0 -8 -4
-8 -9z" />
    <path d="M30 290 c-8 -5 -11 -12 -7 -16 4 -4 15 0 24 9 18 18 8 23 -17 7z" />
    <path d="M20 246 c0 -2 8 -10 18 -17 l17 -14 -14 18 c-13 16 -21 21 -21 13z" />
    <path d="M400 235 c-7 -9 -11 -17 -9 -20 3 -2 10 5 17 15 14 24 10 26 -8 5z" />
    <path d="M420 190 c0 -7 3 -10 7 -7 3 4 3 10 0 14 -4 3 -7 0 -7 -7z" />
    <path d="M450 180 c0 -7 3 -10 7 -7 3 4 3 10 0 14 -4 3 -7 0 -7 -7z" />
    <path d="M396 162 c-3 -5 1 -9 9 -9 8 0 12 4 9 9 -3 4 -7 8 -9 8 -2 0 -6 -4
-9 -8z" />
    <path d="M92 151 l-14 -8 14 -6 15 -5 0 14 c0 8 -1 14 -1 14 -1 0 -7 -4 -14
-9z" />
    <path d="M238 143 c7 -3 16 -2 19 1 4 3 -2 6 -13 5 l-19 -1 13 -5z" />
    <path d="M150 120 c0 -5 5 -10 11 -10 5 0 7 5 4 10 -3 6 -8 10 -11 10 -2 0 -4
-4 -4 -10z" />
    <path d="M243 113 c9 -2 25 -2 35 0 9 3 1 5 -18 5 -19 0 -27 -2 -17 -5z" />
  </g>
  <g transform="translate(0.000000,48.000000) scale(0.100000,-0.100000)" fill="#cfe9fb" stroke="none">
    <path d="M180 460 c0 -5 5 -10 11 -10 5 0 7 5 4 10 -3 6 -8 10 -11 10 -2 0 -4
-4 -4 -10z" />
    <path d="M210 454 l0 -15 10 6 c6 4 8 11 5 16 -9 14 -15 11 -15 -7z" />
    <path d="M360 389 c0 -5 5 -7 10 -4 6 3 10 8 10 11 0 2 -4 4 -10 4 -5 0 -10
-5 -10 -11z" />
    <path d="M29 373 l-14 -18 18 14 c9 7 17 15 17 17 0 8 -8 3 -21 -13z" />
    <path d="M355 360 c3 -5 8 -10 11 -10 2 0 4 5 4 10 0 6 -5 10 -11 10 -5 0 -7
-4 -4 -10z" />
    <path d="M280 349 c0 -5 5 -7 10 -4 6 3 10 8 10 11 0 2 -4 4 -10 4 -5 0 -10
-5 -10 -11z" />
    <path d="M441 274 l1 -19 5 13 c3 7 2 16 -1 19 -3 4 -6 -2 -5 -13z" />
    <path d="M323 243 c-13 -2 -23 -9 -23 -14 0 -14 26 -11 40 6 7 8 11 14 9 14
-2 -1 -14 -4 -26 -6z" />
    <path d="M393 193 c4 -3 10 -3 14 0 3 4 0 7 -7 7 -7 0 -10 -3 -7 -7z" />
    <path d="M425 180 c3 -5 8 -10 11 -10 3 0 2 5 -1 10 -3 6 -8 10 -11 10 -3 0
-2 -4 1 -10z" />
    <path d="M154 128 l-7 -11 11 7 c12 7 16 16 8 16 -3 0 -8 -5 -12 -12z" />
  </g>
  <g transform="translate(0.000000,48.000000) scale(0.100000,-0.100000)" fill="#4bcdff" stroke="none">
    <path d="M202 463 c-6 -2 -10 -9 -6 -14 3 -5 1 -9 -5 -9 -15 0 -4 -23 17 -36
l17 -11 -3 38 c-2 22 -5 39 -6 38 0 0 -7 -3 -14 -6z" />
    <path d="M308 386 c-16 -5 -28 -16 -28 -24 l0 -14 16 6 c9 3 29 6 45 6 l29 0
0 19 0 20 -17 -2 c-10 -1 -30 -6 -45 -11z" />
  </g>
  <g transform="translate(0.000000,48.000000) scale(0.100000,-0.100000)" fill="#309bf5" stroke="none">
    <path d="M225 350 c3 -5 8 -10 11 -10 3 0 2 5 -1 10 -3 6 -8 10 -11 10 -3 0
-2 -4 1 -10z" />
    <path d="M100 307 c0 -3 12 -12 26 -22 15 -9 23 -12 20 -6 -7 11 -46 35 -46
28z" />
    <path d="M31 291 l-13 -8 10 -7 c5 -3 12 1 16 9 6 17 6 18 -13 6z" />
    <path d="M414 248 l-7 -11 11 7 c12 7 16 16 8 16 -3 0 -8 -5 -12 -12z" />
    <path d="M305 230 l-6 -10 15 0 c9 0 16 5 16 10 0 6 -4 10 -9 10 -6 0 -13 -4
-16 -10z" />
  </g>
  <g transform="translate(0.000000,48.000000) scale(0.100000,-0.100000)" fill="#e0f1fd" stroke="none">
    <path d="M182 426 c7 -8 15 -12 17 -11 5 6 -10 25 -20 25 l-10 0 13 -14z" />
    <path d="M173 393 c4 -3 10 -3 14 0 3 4 0 7 -7 7 -7 0 -10 -3 -7 -7z" />
    <path d="M310 390 c0 -5 5 -10 11 -10 5 0 7 5 4 10 -3 6 -8 10 -11 10 -2 0 -4
-4 -4 -10z" />
    <path d="M280 369 c0 -5 5 -7 10 -4 6 3 10 8 10 11 0 2 -4 4 -10 4 -5 0 -10
-5 -10 -11z" />
    <path d="M313 233 c4 -3 10 -3 14 0 3 4 0 7 -7 7 -7 0 -10 -3 -7 -7z" />
  </g>
  <g transform="translate(0.000000,48.000000) scale(0.100000,-0.100000)" fill="#80d6ff" stroke="none">
    <path d="M183 453 c4 -3 10 -3 14 0 3 4 0 7 -7 7 -7 0 -10 -3 -7 -7z" />
    <path d="M185 430 c3 -5 8 -10 11 -10 3 0 2 5 -1 10 -3 6 -8 10 -11 10 -3 0
-2 -4 1 -10z" />
    <path d="M322 391 l-14 -8 16 -6 16 -6 0 14 c0 17 -1 17 -18 6z" />
    <path d="M353 393 c4 -3 10 -3 14 0 3 4 0 7 -7 7 -7 0 -10 -3 -7 -7z" />
    <path d="M285 369 c-4 -6 -5 -12 -2 -15 2 -3 7 2 10 11 7 17 1 20 -8 4z" />
  </g>
  <g transform="translate(0.000000,48.000000) scale(0.100000,-0.100000)" fill="#86a2dd" stroke="none">
    <path d="M127 345 c-8 -18 11 -31 25 -17 11 11 3 32 -12 32 -4 0 -10 -7 -13
-15z" />
    <path d="M147 314 c-9 -10 2 -24 19 -24 8 0 14 7 14 15 0 15 -21 21 -33 9z" />
  </g>
  <g transform="translate(0.000000,48.000000) scale(0.100000,-0.100000)" fill="#465978" stroke="none">
    <path d="M120 346 c0 -9 7 -16 16 -16 17 0 14 22 -4 28 -7 2 -12 -3 -12 -12z" />
  </g>
  <g transform="translate(0.000000,48.000000) scale(0.100000,-0.100000)" fill="#a890c1" stroke="none">
    <path d="M150 305 c0 -9 5 -15 11 -13 6 2 11 8 11 13 0 5 -5 11 -11 13 -6 2
-11 -4 -11 -13z" />
  </g>
  <g transform="translate(0.000000,48.000000) scale(0.100000,-0.100000)" fill="#101724" stroke="none">
    <path d="M126 345 c4 -8 11 -15 16 -15 l10 0 -12 15 c-7 8 -14 15 -16 15 -2 0
-1 -7 2 -15z" />
  </g>
  <g transform="translate(0.000000,48.000000) scale(0.100000,-0.100000)" fill="#ed5352" stroke="none">
    <path d="M155 310 l-6 -10 16 0 16 0 -6 10 c-3 6 -8 10 -10 10 -2 0 -7 -4 -10
-10z" />
  </g>
  <g transform="translate(0.000000,48.000000) scale(0.100000,-0.100000)" fill="#b386af" stroke="none">
    <path d="M165 310 c3 -5 8 -10 11 -10 3 0 2 5 -1 10 -3 6 -8 10 -11 10 -3 0
-2 -4 1 -10z" />
  </g>
  <g transform="translate(0.000000,48.000000) scale(0.100000,-0.100000)" fill="#5d81bd" stroke="none" />
</svg>